<mxfile host="65bd71144e">
    <diagram id="apV_YHAq_L37sPNlknz_" name="Page-1">
        <mxGraphModel dx="2585" dy="1139" grid="1" gridSize="10" guides="1" tooltips="1" connect="1" arrows="1" fold="1" page="1" pageScale="1" pageWidth="850" pageHeight="1100" math="0" shadow="0">
            <root>
                <mxCell id="0"/>
                <mxCell id="1" parent="0"/>
                <mxCell id="2" value="Mysticism" style="rounded=1;whiteSpace=wrap;html=1;" parent="1" vertex="1">
                    <mxGeometry x="-640" y="40" width="200" height="80" as="geometry"/>
                </mxCell>
                <mxCell id="3" value="Combat" style="rounded=1;whiteSpace=wrap;html=1;" parent="1" vertex="1">
                    <mxGeometry x="-70" y="40" width="200" height="80" as="geometry"/>
                </mxCell>
                <mxCell id="4" value="Assassination" style="rounded=1;whiteSpace=wrap;html=1;" parent="1" vertex="1">
                    <mxGeometry x="450" y="40" width="200" height="80" as="geometry"/>
                </mxCell>
                <mxCell id="8" style="edgeStyle=none;html=1;exitX=0.5;exitY=1;exitDx=0;exitDy=0;entryX=0.5;entryY=0;entryDx=0;entryDy=0;" edge="1" parent="1" source="5" target="7">
                    <mxGeometry relative="1" as="geometry"/>
                </mxCell>
                <mxCell id="5" value="Better Wards" style="whiteSpace=wrap;html=1;" vertex="1" parent="1">
                    <mxGeometry x="-600" y="690" width="120" height="60" as="geometry"/>
                </mxCell>
                <mxCell id="7" value="Long Life" style="whiteSpace=wrap;html=1;" vertex="1" parent="1">
                    <mxGeometry x="-600" y="810" width="120" height="60" as="geometry"/>
                </mxCell>
                <mxCell id="9" value="+1 Prowess" style="whiteSpace=wrap;html=1;" vertex="1" parent="1">
                    <mxGeometry x="-720" y="330" width="120" height="60" as="geometry"/>
                </mxCell>
                <mxCell id="10" value="+1 Prowess" style="whiteSpace=wrap;html=1;" vertex="1" parent="1">
                    <mxGeometry x="-720" y="450" width="120" height="60" as="geometry"/>
                </mxCell>
                <mxCell id="11" value="+1 Prowess" style="whiteSpace=wrap;html=1;" vertex="1" parent="1">
                    <mxGeometry x="-720" y="560" width="120" height="60" as="geometry"/>
                </mxCell>
                <mxCell id="12" value="+1 Prowess" style="whiteSpace=wrap;html=1;" vertex="1" parent="1">
                    <mxGeometry x="-480" y="330" width="120" height="60" as="geometry"/>
                </mxCell>
                <mxCell id="13" value="Disease Resistance" style="whiteSpace=wrap;html=1;" vertex="1" parent="1">
                    <mxGeometry x="-480" y="560" width="120" height="60" as="geometry"/>
                </mxCell>
                <mxCell id="14" value="Can Meditate&lt;br&gt;&lt;i&gt;Interaction or activity that can result in a skill point.&lt;br&gt;Can also result in mystic&lt;br&gt;Can also result in shrewd&lt;br&gt;&lt;/i&gt;" style="whiteSpace=wrap;html=1;" vertex="1" parent="1">
                    <mxGeometry x="-600" y="210" width="120" height="60" as="geometry"/>
                </mxCell>
                <mxCell id="15" value="Can Train in seclusion&lt;br&gt;&lt;i&gt;Interaction or activity that can result in a skill point&lt;br&gt;Can also result in strong&lt;br&gt;&lt;/i&gt;" style="whiteSpace=wrap;html=1;" vertex="1" parent="1">
                    <mxGeometry x="-30" y="210" width="120" height="60" as="geometry"/>
                </mxCell>
                <mxCell id="16" value="+2 Prowess" style="whiteSpace=wrap;html=1;" vertex="1" parent="1">
                    <mxGeometry x="-150" y="330" width="120" height="60" as="geometry"/>
                </mxCell>
                <mxCell id="17" value="+1 Prowess" style="whiteSpace=wrap;html=1;" vertex="1" parent="1">
                    <mxGeometry x="90" y="330" width="120" height="60" as="geometry"/>
                </mxCell>
                <mxCell id="18" value="+2 Prowess" style="whiteSpace=wrap;html=1;" vertex="1" parent="1">
                    <mxGeometry x="-150" y="450" width="120" height="60" as="geometry"/>
                </mxCell>
                <mxCell id="19" value="+2 Prowess" style="whiteSpace=wrap;html=1;" vertex="1" parent="1">
                    <mxGeometry x="-150" y="560" width="120" height="60" as="geometry"/>
                </mxCell>
                <mxCell id="20" value="+1 Prowess" style="whiteSpace=wrap;html=1;" vertex="1" parent="1">
                    <mxGeometry x="410" y="330" width="120" height="60" as="geometry"/>
                </mxCell>
                <mxCell id="21" value="+1 Prowess" style="whiteSpace=wrap;html=1;" vertex="1" parent="1">
                    <mxGeometry x="410" y="450" width="120" height="60" as="geometry"/>
                </mxCell>
                <mxCell id="22" value="+1 Prowess" style="whiteSpace=wrap;html=1;" vertex="1" parent="1">
                    <mxGeometry x="410" y="560" width="120" height="60" as="geometry"/>
                </mxCell>
                <mxCell id="23" value="+5 Prowess&lt;br&gt;+ 5 Martial&lt;br&gt;Strong commander traits" style="whiteSpace=wrap;html=1;" vertex="1" parent="1">
                    <mxGeometry x="-30" y="810" width="120" height="60" as="geometry"/>
                </mxCell>
                <mxCell id="24" value="Hostile Scheme Resistance" style="whiteSpace=wrap;html=1;" vertex="1" parent="1">
                    <mxGeometry x="600" y="330" width="120" height="60" as="geometry"/>
                </mxCell>
                <mxCell id="25" value="Murder Scheme Power" style="whiteSpace=wrap;html=1;" vertex="1" parent="1">
                    <mxGeometry x="600" y="450" width="120" height="60" as="geometry"/>
                </mxCell>
                <mxCell id="26" value="Assassinate&lt;br&gt;&lt;i&gt;Activity that can assassinate characters with lower prowess&lt;/i&gt;" style="whiteSpace=wrap;html=1;" vertex="1" parent="1">
                    <mxGeometry x="500" y="210" width="120" height="60" as="geometry"/>
                </mxCell>
                <mxCell id="27" value="+5 Prowess&lt;br&gt;+5 Intrigue" style="whiteSpace=wrap;html=1;" vertex="1" parent="1">
                    <mxGeometry x="500" y="810" width="120" height="60" as="geometry"/>
                </mxCell>
                <mxCell id="28" value="Can force a duel" style="whiteSpace=wrap;html=1;" vertex="1" parent="1">
                    <mxGeometry x="-30" y="690" width="120" height="60" as="geometry"/>
                </mxCell>
                <mxCell id="29" value="Dread Gain" style="whiteSpace=wrap;html=1;" vertex="1" parent="1">
                    <mxGeometry x="600" y="560" width="120" height="60" as="geometry"/>
                </mxCell>
            </root>
        </mxGraphModel>
    </diagram>
</mxfile>